<?xml version="1.0" encoding="iso-8859-1"?>
<!-- Uploaded to: SVG Repo, www.svgrepo.com, Generator: SVG Repo Mixer Tools -->
<svg height="800px" width="800px" version="1.1" id="Layer_1" xmlns="http://www.w3.org/2000/svg" xmlns:xlink="http://www.w3.org/1999/xlink" 
	 viewBox="0 0 512 512" xml:space="preserve">
<path style="fill:#ABECEC;" d="M256,40.851L147.064,256L256,471.149c118.634,0,215.149-96.515,215.149-215.149
	S374.634,40.851,256,40.851z"/>
<path style="fill:#D5F6F5;" d="M40.851,256c0,118.634,96.515,215.149,215.149,215.149V40.851
	C137.366,40.851,40.851,137.366,40.851,256z"/>
<path style="fill:#FFF1B1;" d="M257.928,73.543v364.914c99.731-1.035,180.54-82.487,180.54-182.457S357.659,74.578,257.928,73.543z"
	/>
<path style="fill:#FFFFFF;" d="M257.928,73.543C339.641,74.817,405.787,156.171,405.787,256s-66.146,181.183-147.859,182.457
	c-0.643,0.011-1.285,0.011-1.928,0.011c-100.613,0-182.468-81.855-182.468-182.468S155.387,73.532,256,73.532
	C256.643,73.532,257.285,73.532,257.928,73.543z"/>
<path style="fill:#FFC1A6;" d="M256,106.213v232.034c58.063,0,105.123-47.06,105.123-105.123v-21.787
	C361.123,153.284,314.063,106.213,256,106.213z"/>
<path style="fill:#FFDBCC;" d="M256,106.213c40.012,0,72.443,47.071,72.443,105.123v21.787c0,58.063-32.43,105.123-72.443,105.123
	c-58.063,0-105.123-47.06-105.123-105.123v-21.787C150.877,153.284,197.937,106.213,256,106.213z"/>
<path style="fill:#FEDC3D;" d="M257.863,370.394l70.895,88.078c20.744-7.481,40.022-18.056,57.267-31.178
	C354.075,392.727,308.524,370.918,257.863,370.394z"/>
<path style="fill:#FFE777;" d="M257.863,370.394c-0.621-0.011-1.242-0.011-1.863-0.011c-51.407,0-97.685,21.917-130.024,56.908
	c36.143,27.504,81.206,43.858,130.024,43.858c41.76,0,80.765-11.975,113.797-32.649
	C343.735,397.597,303.334,371.104,257.863,370.394z"/>
<path style="fill:#D5F6F5;" d="M277.787,371.712L256,433.392c30.077,0,54.457-24.369,54.468-54.457
	C299.967,375.536,289.04,373.095,277.787,371.712z"/>
<path style="fill:#FFFFFF;" d="M277.787,371.712v7.212c0,30.088-9.75,54.468-21.787,54.468c-30.077,0-54.468-24.38-54.468-54.468
	c17.157-5.545,35.459-8.541,54.468-8.541C263.375,370.383,270.641,370.83,277.787,371.712z"/>
<g>
	<path style="fill:#272727;" d="M296.306,229.512c-4.512,0-8.17-3.657-8.17-8.17v-16.34c0-4.513,3.658-8.17,8.17-8.17
		c4.512,0,8.17,3.657,8.17,8.17v16.34C304.477,225.854,300.819,229.512,296.306,229.512z"/>
	<path style="fill:#272727;" d="M215.694,229.512c-4.512,0-8.17-3.657-8.17-8.17v-16.34c0-4.513,3.658-8.17,8.17-8.17
		c4.512,0,8.17,3.657,8.17,8.17v16.34C223.864,225.854,220.206,229.512,215.694,229.512z"/>
</g>
<path style="fill:#FE5F1A;" d="M256,280.311c-11.414,0-21.386-7.729-24.25-18.796c-1.131-4.368,1.495-8.826,5.862-9.957
	c4.369-1.133,8.826,1.494,9.957,5.863c0.998,3.855,4.465,6.549,8.431,6.549c3.965,0,7.433-2.694,8.431-6.549
	c1.131-4.368,5.588-6.992,9.957-5.863c4.368,1.131,6.993,5.588,5.862,9.957C277.386,272.583,267.414,280.311,256,280.311z"/>
</svg>